<mxfile host="Electron" modified="2021-12-02T21:42:22.352Z" agent="5.0 (X11; Linux x86_64) AppleWebKit/537.36 (KHTML, like Gecko) draw.io/15.8.7 Chrome/91.0.4472.164 Electron/13.6.2 Safari/537.36" etag="RT_iHZwkFuBgGpfx0-yt" compressed="false" version="15.8.7" type="device">
  <diagram id="prtHgNgQTEPvFCAcTncT" name="Processos Alto Nível">
    <mxGraphModel dx="3214" dy="2586" grid="1" gridSize="10" guides="1" tooltips="1" connect="1" arrows="1" fold="1" page="1" pageScale="1" pageWidth="827" pageHeight="1169" math="0" shadow="0">
      <root>
        <mxCell id="0" />
        <mxCell id="1" parent="0" />
        <mxCell id="8Ae6zeDYgx-UutW48Nks-51" value="" style="rounded=0;whiteSpace=wrap;html=1;labelBackgroundColor=none;fontSize=20;strokeWidth=2;fillColor=#A9C4EB;gradientDirection=south;dashed=1;strokeColor=none;opacity=50;" parent="1" vertex="1">
          <mxGeometry x="60" y="930" width="2120" height="280" as="geometry" />
        </mxCell>
        <mxCell id="8Ae6zeDYgx-UutW48Nks-23" value="" style="rounded=0;whiteSpace=wrap;html=1;labelBackgroundColor=none;fontSize=20;strokeWidth=2;fillColor=#546d78;gradientDirection=south;dashed=1;strokeColor=none;opacity=50;" parent="1" vertex="1">
          <mxGeometry x="60" y="370" width="510" height="560" as="geometry" />
        </mxCell>
        <mxCell id="j8fhtU1hvzyhwvqFzkYq-1" value="&lt;b&gt;IFAP&lt;/b&gt;" style="swimlane;html=1;startSize=20;fontStyle=0;collapsible=0;horizontal=0;swimlaneLine=1;swimlaneFillColor=none;strokeWidth=2;rounded=0;shadow=0;glass=0;fontSize=14;fillColor=none;" parent="1" vertex="1">
          <mxGeometry x="40" y="540" width="2140" height="170" as="geometry" />
        </mxCell>
        <mxCell id="j8fhtU1hvzyhwvqFzkYq-11" style="edgeStyle=orthogonalEdgeStyle;rounded=0;orthogonalLoop=1;jettySize=auto;html=1;fontSize=15;startArrow=none;startFill=0;strokeWidth=2;" parent="j8fhtU1hvzyhwvqFzkYq-1" source="j8fhtU1hvzyhwvqFzkYq-7" target="j8fhtU1hvzyhwvqFzkYq-9" edge="1">
          <mxGeometry relative="1" as="geometry" />
        </mxCell>
        <mxCell id="j8fhtU1hvzyhwvqFzkYq-7" value="&lt;span style=&quot;font-family: &amp;#34;arial&amp;#34; , sans-serif ; font-size: 15px&quot;&gt;Candidatura VITIS&lt;br&gt;recebida&lt;br style=&quot;font-size: 15px&quot;&gt;&lt;/span&gt;" style="points=[[0.145,0.145,0],[0.5,0,0],[0.855,0.145,0],[1,0.5,0],[0.855,0.855,0],[0.5,1,0],[0.145,0.855,0],[0,0.5,0]];shape=mxgraph.bpmn.event;html=1;verticalLabelPosition=bottom;labelBackgroundColor=#ffffff;verticalAlign=top;align=center;perimeter=ellipsePerimeter;outlineConnect=0;aspect=fixed;outline=standard;symbol=message;rounded=0;shadow=0;glass=0;sketch=0;fontSize=15;" parent="j8fhtU1hvzyhwvqFzkYq-1" vertex="1">
          <mxGeometry x="90" y="65" width="40" height="40" as="geometry" />
        </mxCell>
        <mxCell id="j8fhtU1hvzyhwvqFzkYq-9" value="Processamento candidatura" style="points=[[0.25,0,0],[0.5,0,0],[0.75,0,0],[1,0.25,0],[1,0.5,0],[1,0.75,0],[0.75,1,0],[0.5,1,0],[0.25,1,0],[0,0.75,0],[0,0.5,0],[0,0.25,0]];shape=mxgraph.bpmn.task;whiteSpace=wrap;rectStyle=rounded;size=10;taskMarker=service;rounded=0;shadow=0;glass=0;sketch=0;fontSize=15;fillColor=default;" parent="j8fhtU1hvzyhwvqFzkYq-1" vertex="1">
          <mxGeometry x="190" y="45" width="120" height="80" as="geometry" />
        </mxCell>
        <mxCell id="j8fhtU1hvzyhwvqFzkYq-5" value="&lt;b&gt;Viticultor&lt;/b&gt;" style="swimlane;html=1;startSize=20;fontStyle=0;collapsible=0;horizontal=0;swimlaneLine=1;swimlaneFillColor=none;strokeWidth=2;rounded=0;shadow=0;glass=0;fontSize=14;fillColor=none;" parent="1" vertex="1">
          <mxGeometry x="40" y="370" width="2140" height="110" as="geometry" />
        </mxCell>
        <mxCell id="j8fhtU1hvzyhwvqFzkYq-8" value="&lt;span style=&quot;color: rgb(0, 0, 0); font-family: helvetica; font-size: 15px; font-style: normal; font-weight: 400; letter-spacing: normal; text-align: center; text-indent: 0px; text-transform: none; word-spacing: 0px; display: inline; float: none;&quot;&gt;Candidatura &lt;br&gt;VITIS&lt;/span&gt;" style="edgeStyle=orthogonalEdgeStyle;rounded=0;orthogonalLoop=1;jettySize=auto;html=1;entryX=0.5;entryY=0;entryDx=0;entryDy=0;entryPerimeter=0;fontSize=15;dashed=1;startArrow=oval;startFill=0;strokeWidth=2;labelBackgroundColor=default;" parent="1" target="j8fhtU1hvzyhwvqFzkYq-7" edge="1">
          <mxGeometry x="-0.52" relative="1" as="geometry">
            <mxPoint x="150" y="480" as="sourcePoint" />
            <Array as="points">
              <mxPoint x="150" y="480" />
            </Array>
            <mxPoint as="offset" />
          </mxGeometry>
        </mxCell>
        <mxCell id="j8fhtU1hvzyhwvqFzkYq-12" value="&lt;b&gt;IVV&lt;/b&gt;" style="swimlane;html=1;startSize=20;fontStyle=0;collapsible=0;horizontal=0;swimlaneLine=1;swimlaneFillColor=none;strokeWidth=2;rounded=0;shadow=0;glass=0;fontSize=14;fillColor=none;" parent="1" vertex="1">
          <mxGeometry x="40" y="710" width="2140" height="220" as="geometry" />
        </mxCell>
        <mxCell id="j8fhtU1hvzyhwvqFzkYq-19" value="" style="edgeStyle=orthogonalEdgeStyle;rounded=0;jumpStyle=none;orthogonalLoop=1;jettySize=auto;html=1;fontSize=15;startArrow=none;startFill=0;strokeWidth=2;" parent="j8fhtU1hvzyhwvqFzkYq-12" source="j8fhtU1hvzyhwvqFzkYq-14" target="j8fhtU1hvzyhwvqFzkYq-18" edge="1">
          <mxGeometry relative="1" as="geometry" />
        </mxCell>
        <mxCell id="j8fhtU1hvzyhwvqFzkYq-23" style="edgeStyle=orthogonalEdgeStyle;rounded=0;jumpStyle=none;orthogonalLoop=1;jettySize=auto;html=1;entryX=0;entryY=0.5;entryDx=0;entryDy=0;entryPerimeter=0;fontSize=15;startArrow=none;startFill=0;strokeWidth=2;dashed=1;endArrow=open;endFill=0;exitX=0.855;exitY=0.145;exitDx=0;exitDy=0;exitPerimeter=0;" parent="j8fhtU1hvzyhwvqFzkYq-12" source="j8fhtU1hvzyhwvqFzkYq-14" target="j8fhtU1hvzyhwvqFzkYq-22" edge="1">
          <mxGeometry relative="1" as="geometry">
            <Array as="points">
              <mxPoint x="260" y="136" />
              <mxPoint x="260" y="55" />
            </Array>
          </mxGeometry>
        </mxCell>
        <mxCell id="j8fhtU1hvzyhwvqFzkYq-14" value="&lt;font face=&quot;arial, sans-serif&quot;&gt;Candidaturas VITIS&lt;br&gt;&lt;/font&gt;" style="points=[[0.145,0.145,0],[0.5,0,0],[0.855,0.145,0],[1,0.5,0],[0.855,0.855,0],[0.5,1,0],[0.145,0.855,0],[0,0.5,0]];shape=mxgraph.bpmn.event;html=1;verticalLabelPosition=bottom;labelBackgroundColor=#ffffff;verticalAlign=top;align=center;perimeter=ellipsePerimeter;outlineConnect=0;aspect=fixed;outline=standard;symbol=message;rounded=0;shadow=0;glass=0;sketch=0;fontSize=15;" parent="j8fhtU1hvzyhwvqFzkYq-12" vertex="1">
          <mxGeometry x="220" y="130" width="40" height="40" as="geometry" />
        </mxCell>
        <mxCell id="j8fhtU1hvzyhwvqFzkYq-18" value="Identificação de parcelas" style="points=[[0.25,0,0],[0.5,0,0],[0.75,0,0],[1,0.25,0],[1,0.5,0],[1,0.75,0],[0.75,1,0],[0.5,1,0],[0.25,1,0],[0,0.75,0],[0,0.5,0],[0,0.25,0]];shape=mxgraph.bpmn.task;whiteSpace=wrap;rectStyle=rounded;size=10;taskMarker=abstract;isLoopStandard=1;isLoopSub=1;rounded=0;shadow=0;glass=0;sketch=0;fontSize=15;" parent="j8fhtU1hvzyhwvqFzkYq-12" vertex="1">
          <mxGeometry x="340" y="110" width="120" height="80" as="geometry" />
        </mxCell>
        <mxCell id="j8fhtU1hvzyhwvqFzkYq-24" style="edgeStyle=orthogonalEdgeStyle;rounded=0;jumpStyle=none;orthogonalLoop=1;jettySize=auto;html=1;dashed=1;fontSize=15;startArrow=none;startFill=0;endArrow=open;endFill=0;strokeWidth=2;" parent="j8fhtU1hvzyhwvqFzkYq-12" source="j8fhtU1hvzyhwvqFzkYq-22" target="j8fhtU1hvzyhwvqFzkYq-18" edge="1">
          <mxGeometry relative="1" as="geometry">
            <Array as="points">
              <mxPoint x="370" y="80" />
              <mxPoint x="370" y="80" />
            </Array>
          </mxGeometry>
        </mxCell>
        <mxCell id="j8fhtU1hvzyhwvqFzkYq-22" value="Candidatura" style="shape=mxgraph.bpmn.data;labelPosition=center;verticalLabelPosition=top;align=center;verticalAlign=bottom;whiteSpace=wrap;size=23;html=1;rounded=0;shadow=0;glass=0;sketch=0;fontSize=15;" parent="j8fhtU1hvzyhwvqFzkYq-12" vertex="1">
          <mxGeometry x="350" y="30" width="40" height="50" as="geometry" />
        </mxCell>
        <mxCell id="j8fhtU1hvzyhwvqFzkYq-29" style="edgeStyle=orthogonalEdgeStyle;rounded=0;jumpStyle=none;orthogonalLoop=1;jettySize=auto;html=1;fontSize=15;startArrow=none;startFill=0;endArrow=open;endFill=0;strokeWidth=2;dashed=1;" parent="j8fhtU1hvzyhwvqFzkYq-12" source="j8fhtU1hvzyhwvqFzkYq-27" target="j8fhtU1hvzyhwvqFzkYq-18" edge="1">
          <mxGeometry relative="1" as="geometry">
            <mxPoint x="600" y="120" as="targetPoint" />
            <Array as="points">
              <mxPoint x="450" y="90" />
              <mxPoint x="450" y="90" />
            </Array>
          </mxGeometry>
        </mxCell>
        <mxCell id="j8fhtU1hvzyhwvqFzkYq-27" value="SIVV" style="shape=datastore;labelPosition=center;verticalLabelPosition=top;align=center;verticalAlign=bottom;rounded=0;shadow=0;glass=0;sketch=0;fontSize=15;html=1;" parent="j8fhtU1hvzyhwvqFzkYq-12" vertex="1">
          <mxGeometry x="430" y="30" width="40" height="50" as="geometry" />
        </mxCell>
        <mxCell id="j8fhtU1hvzyhwvqFzkYq-16" style="edgeStyle=orthogonalEdgeStyle;rounded=0;orthogonalLoop=1;jettySize=auto;html=1;entryX=0.5;entryY=0;entryDx=0;entryDy=0;entryPerimeter=0;fontSize=15;startArrow=oval;startFill=0;strokeWidth=2;dashed=1;jumpStyle=none;" parent="1" source="j8fhtU1hvzyhwvqFzkYq-9" target="j8fhtU1hvzyhwvqFzkYq-14" edge="1">
          <mxGeometry relative="1" as="geometry">
            <Array as="points">
              <mxPoint x="280" y="800" />
              <mxPoint x="280" y="800" />
            </Array>
          </mxGeometry>
        </mxCell>
        <mxCell id="j8fhtU1hvzyhwvqFzkYq-30" value="PORVID" style="swimlane;html=1;startSize=20;fontStyle=0;collapsible=0;horizontal=0;swimlaneLine=1;swimlaneFillColor=none;strokeWidth=2;rounded=0;shadow=0;glass=0;sketch=0;fontSize=15;align=center;verticalAlign=bottom;fillColor=none;" parent="1" vertex="1">
          <mxGeometry x="40" y="930" width="2140" height="280" as="geometry" />
        </mxCell>
        <mxCell id="8Ae6zeDYgx-UutW48Nks-45" style="edgeStyle=orthogonalEdgeStyle;rounded=0;orthogonalLoop=1;jettySize=auto;html=1;fontSize=20;fontColor=#000000;endArrow=classic;endFill=1;strokeWidth=2;" parent="j8fhtU1hvzyhwvqFzkYq-30" source="j8fhtU1hvzyhwvqFzkYq-31" target="5pTV1qb8en98lGyIplWa-1" edge="1">
          <mxGeometry relative="1" as="geometry">
            <mxPoint x="490.02941176470586" y="139.97058823529414" as="targetPoint" />
          </mxGeometry>
        </mxCell>
        <mxCell id="j8fhtU1hvzyhwvqFzkYq-31" value="&lt;font face=&quot;arial, sans-serif&quot;&gt;Informação de parcelas Aprovadas&lt;br&gt;&lt;/font&gt;" style="points=[[0.145,0.145,0],[0.5,0,0],[0.855,0.145,0],[1,0.5,0],[0.855,0.855,0],[0.5,1,0],[0.145,0.855,0],[0,0.5,0]];shape=mxgraph.bpmn.event;html=1;verticalLabelPosition=bottom;labelBackgroundColor=#ffffff;verticalAlign=top;align=center;perimeter=ellipsePerimeter;outlineConnect=0;aspect=fixed;outline=standard;symbol=message;rounded=0;shadow=0;glass=0;sketch=0;fontSize=15;whiteSpace=wrap;" parent="j8fhtU1hvzyhwvqFzkYq-30" vertex="1">
          <mxGeometry x="390" y="120.5" width="40" height="40" as="geometry" />
        </mxCell>
        <mxCell id="j8fhtU1hvzyhwvqFzkYq-58" value="Sem interesse" style="edgeStyle=orthogonalEdgeStyle;rounded=0;jumpStyle=none;orthogonalLoop=1;jettySize=auto;html=1;fontSize=15;startArrow=none;startFill=0;endArrow=classic;endFill=1;strokeWidth=2;" parent="j8fhtU1hvzyhwvqFzkYq-30" source="j8fhtU1hvzyhwvqFzkYq-49" target="j8fhtU1hvzyhwvqFzkYq-61" edge="1">
          <mxGeometry x="-0.0667" relative="1" as="geometry">
            <mxPoint x="1055" y="140.49999999999977" as="targetPoint" />
            <mxPoint as="offset" />
          </mxGeometry>
        </mxCell>
        <mxCell id="j8fhtU1hvzyhwvqFzkYq-59" value="Com interesse" style="edgeStyle=orthogonalEdgeStyle;rounded=0;jumpStyle=none;orthogonalLoop=1;jettySize=auto;html=1;fontSize=15;startArrow=none;startFill=0;endArrow=classic;endFill=1;strokeWidth=2;" parent="j8fhtU1hvzyhwvqFzkYq-30" source="j8fhtU1hvzyhwvqFzkYq-49" target="j8fhtU1hvzyhwvqFzkYq-98" edge="1">
          <mxGeometry x="-0.2598" relative="1" as="geometry">
            <mxPoint x="965" y="430.5" as="targetPoint" />
            <Array as="points">
              <mxPoint x="880" y="220.5" />
              <mxPoint x="1160" y="220.5" />
            </Array>
            <mxPoint as="offset" />
          </mxGeometry>
        </mxCell>
        <mxCell id="j8fhtU1hvzyhwvqFzkYq-49" value="" style="points=[[0.25,0.25,0],[0.5,0,0],[0.75,0.25,0],[1,0.5,0],[0.75,0.75,0],[0.5,1,0],[0.25,0.75,0],[0,0.5,0]];shape=mxgraph.bpmn.gateway2;html=1;verticalLabelPosition=bottom;labelBackgroundColor=#ffffff;verticalAlign=top;align=center;perimeter=rhombusPerimeter;outlineConnect=0;outline=none;symbol=none;gwType=exclusive;rounded=0;shadow=0;glass=0;sketch=0;fontSize=15;" parent="j8fhtU1hvzyhwvqFzkYq-30" vertex="1">
          <mxGeometry x="855" y="116" width="50" height="50" as="geometry" />
        </mxCell>
        <mxCell id="j8fhtU1hvzyhwvqFzkYq-61" value="" style="points=[[0.145,0.145,0],[0.5,0,0],[0.855,0.145,0],[1,0.5,0],[0.855,0.855,0],[0.5,1,0],[0.145,0.855,0],[0,0.5,0]];shape=mxgraph.bpmn.event;html=1;verticalLabelPosition=bottom;labelBackgroundColor=#ffffff;verticalAlign=top;align=center;perimeter=ellipsePerimeter;outlineConnect=0;aspect=fixed;outline=end;symbol=terminate2;rounded=0;shadow=0;glass=0;sketch=0;fontSize=15;" parent="j8fhtU1hvzyhwvqFzkYq-30" vertex="1">
          <mxGeometry x="1060" y="115.5" width="50" height="50" as="geometry" />
        </mxCell>
        <mxCell id="8Ae6zeDYgx-UutW48Nks-33" style="edgeStyle=orthogonalEdgeStyle;rounded=0;orthogonalLoop=1;jettySize=auto;html=1;fontSize=20;fontColor=#000000;endArrow=classic;endFill=1;strokeWidth=2;" parent="j8fhtU1hvzyhwvqFzkYq-30" source="j8fhtU1hvzyhwvqFzkYq-98" target="8Ae6zeDYgx-UutW48Nks-31" edge="1">
          <mxGeometry relative="1" as="geometry">
            <Array as="points">
              <mxPoint x="1175" y="69.5" />
            </Array>
          </mxGeometry>
        </mxCell>
        <mxCell id="8Ae6zeDYgx-UutW48Nks-34" style="edgeStyle=orthogonalEdgeStyle;rounded=0;orthogonalLoop=1;jettySize=auto;html=1;fontSize=20;fontColor=#000000;endArrow=classic;endFill=1;strokeWidth=2;" parent="j8fhtU1hvzyhwvqFzkYq-30" source="j8fhtU1hvzyhwvqFzkYq-98" target="al4PJ4pm5zgEQlfIhQZX-3" edge="1">
          <mxGeometry relative="1" as="geometry">
            <Array as="points">
              <mxPoint x="1175" y="220.5" />
            </Array>
          </mxGeometry>
        </mxCell>
        <mxCell id="j8fhtU1hvzyhwvqFzkYq-98" value="" style="points=[[0.25,0.25,0],[0.5,0,0],[0.75,0.25,0],[1,0.5,0],[0.75,0.75,0],[0.5,1,0],[0.25,0.75,0],[0,0.5,0]];shape=mxgraph.bpmn.gateway2;html=1;verticalLabelPosition=bottom;labelBackgroundColor=#ffffff;verticalAlign=top;align=center;perimeter=rhombusPerimeter;outlineConnect=0;outline=none;symbol=none;gwType=parallel;rounded=0;shadow=0;glass=0;sketch=0;fontSize=15;fillColor=none;" parent="j8fhtU1hvzyhwvqFzkYq-30" vertex="1">
          <mxGeometry x="1150" y="115.5" width="50" height="50" as="geometry" />
        </mxCell>
        <mxCell id="IbKYtC_3RCh5xxz1OneK-177" style="edgeStyle=orthogonalEdgeStyle;rounded=0;jumpStyle=arc;orthogonalLoop=1;jettySize=auto;html=1;labelBackgroundColor=default;fontSize=15;startArrow=none;startFill=0;endArrow=classic;endFill=1;strokeWidth=2;" parent="j8fhtU1hvzyhwvqFzkYq-30" source="j8fhtU1hvzyhwvqFzkYq-77" target="IbKYtC_3RCh5xxz1OneK-175" edge="1">
          <mxGeometry relative="1" as="geometry" />
        </mxCell>
        <mxCell id="j8fhtU1hvzyhwvqFzkYq-77" value="Recolha de amostras" style="points=[[0.25,0,0],[0.5,0,0],[0.75,0,0],[1,0.25,0],[1,0.5,0],[1,0.75,0],[0.75,1,0],[0.5,1,0],[0.25,1,0],[0,0.75,0],[0,0.5,0],[0,0.25,0]];shape=mxgraph.bpmn.task;whiteSpace=wrap;rectStyle=rounded;size=10;taskMarker=user;rounded=0;shadow=0;glass=0;sketch=0;fontSize=15;align=center;verticalAlign=middle;html=1;" parent="j8fhtU1hvzyhwvqFzkYq-30" vertex="1">
          <mxGeometry x="1495" y="100.5" width="120" height="80" as="geometry" />
        </mxCell>
        <mxCell id="8Ae6zeDYgx-UutW48Nks-37" style="edgeStyle=orthogonalEdgeStyle;rounded=0;orthogonalLoop=1;jettySize=auto;html=1;fontSize=20;fontColor=#000000;endArrow=classic;endFill=1;strokeWidth=2;" parent="j8fhtU1hvzyhwvqFzkYq-30" source="al4PJ4pm5zgEQlfIhQZX-3" target="8Ae6zeDYgx-UutW48Nks-35" edge="1">
          <mxGeometry relative="1" as="geometry" />
        </mxCell>
        <mxCell id="al4PJ4pm5zgEQlfIhQZX-3" value="Optimização de recolhas" style="points=[[0.25,0,0],[0.5,0,0],[0.75,0,0],[1,0.25,0],[1,0.5,0],[1,0.75,0],[0.75,1,0],[0.5,1,0],[0.25,1,0],[0,0.75,0],[0,0.5,0],[0,0.25,0]];shape=mxgraph.bpmn.task;whiteSpace=wrap;rectStyle=rounded;size=10;taskMarker=abstract;isLoopStandard=1;isLoopSub=1;fillColor=#5b7b65;" parent="j8fhtU1hvzyhwvqFzkYq-30" vertex="1">
          <mxGeometry x="1235" y="171" width="120" height="80" as="geometry" />
        </mxCell>
        <mxCell id="IbKYtC_3RCh5xxz1OneK-46" style="edgeStyle=orthogonalEdgeStyle;rounded=0;orthogonalLoop=1;jettySize=auto;html=1;endArrow=classic;endFill=1;strokeWidth=2;" parent="j8fhtU1hvzyhwvqFzkYq-30" source="j8fhtU1hvzyhwvqFzkYq-91" target="j8fhtU1hvzyhwvqFzkYq-49" edge="1">
          <mxGeometry relative="1" as="geometry" />
        </mxCell>
        <mxCell id="j8fhtU1hvzyhwvqFzkYq-91" value="&lt;span&gt;Decisão sobre parcelas a prospetar&lt;/span&gt;" style="points=[[0.25,0,0],[0.5,0,0],[0.75,0,0],[1,0.25,0],[1,0.5,0],[1,0.75,0],[0.75,1,0],[0.5,1,0],[0.25,1,0],[0,0.75,0],[0,0.5,0],[0,0.25,0]];shape=mxgraph.bpmn.task;whiteSpace=wrap;rectStyle=rounded;size=10;taskMarker=abstract;isLoopSub=1;rounded=0;shadow=0;glass=0;sketch=0;fontSize=15;align=center;verticalAlign=middle;html=1;fillColor=#5B7B65;strokeColor=default;" parent="j8fhtU1hvzyhwvqFzkYq-30" vertex="1">
          <mxGeometry x="660" y="95.5" width="150" height="90" as="geometry" />
        </mxCell>
        <mxCell id="IbKYtC_3RCh5xxz1OneK-186" style="edgeStyle=orthogonalEdgeStyle;rounded=0;jumpStyle=arc;orthogonalLoop=1;jettySize=auto;html=1;labelBackgroundColor=default;fontSize=15;startArrow=none;startFill=0;endArrow=classic;endFill=1;strokeWidth=2;" parent="j8fhtU1hvzyhwvqFzkYq-30" source="IbKYtC_3RCh5xxz1OneK-175" target="IbKYtC_3RCh5xxz1OneK-185" edge="1">
          <mxGeometry relative="1" as="geometry" />
        </mxCell>
        <mxCell id="IbKYtC_3RCh5xxz1OneK-175" value="Atualização registos PORVID" style="points=[[0.25,0,0],[0.5,0,0],[0.75,0,0],[1,0.25,0],[1,0.5,0],[1,0.75,0],[0.75,1,0],[0.5,1,0],[0.25,1,0],[0,0.75,0],[0,0.5,0],[0,0.25,0]];shape=mxgraph.bpmn.task;whiteSpace=wrap;rectStyle=rounded;size=10;taskMarker=abstract;rounded=0;shadow=0;glass=0;sketch=0;fontSize=15;align=center;verticalAlign=middle;html=1;" parent="j8fhtU1hvzyhwvqFzkYq-30" vertex="1">
          <mxGeometry x="1660" y="100.5" width="150" height="80" as="geometry" />
        </mxCell>
        <mxCell id="IbKYtC_3RCh5xxz1OneK-185" value="Notificar&amp;nbsp;&lt;span style=&quot;font-size: 14px&quot;&gt;DRAP&lt;/span&gt;" style="points=[[0.25,0,0],[0.5,0,0],[0.75,0,0],[1,0.25,0],[1,0.5,0],[1,0.75,0],[0.75,1,0],[0.5,1,0],[0.25,1,0],[0,0.75,0],[0,0.5,0],[0,0.25,0]];shape=mxgraph.bpmn.task;whiteSpace=wrap;rectStyle=rounded;size=10;taskMarker=send;rounded=0;shadow=0;glass=0;sketch=0;fontSize=15;align=center;verticalAlign=middle;html=1;" parent="j8fhtU1hvzyhwvqFzkYq-30" vertex="1">
          <mxGeometry x="1860" y="100.5" width="130" height="80" as="geometry" />
        </mxCell>
        <mxCell id="8Ae6zeDYgx-UutW48Nks-36" style="edgeStyle=orthogonalEdgeStyle;rounded=0;orthogonalLoop=1;jettySize=auto;html=1;fontSize=20;fontColor=#000000;endArrow=classic;endFill=1;strokeWidth=2;" parent="j8fhtU1hvzyhwvqFzkYq-30" source="8Ae6zeDYgx-UutW48Nks-31" target="8Ae6zeDYgx-UutW48Nks-35" edge="1">
          <mxGeometry relative="1" as="geometry" />
        </mxCell>
        <mxCell id="8Ae6zeDYgx-UutW48Nks-31" value="Agendamento de prospeção" style="points=[[0.25,0,0],[0.5,0,0],[0.75,0,0],[1,0.25,0],[1,0.5,0],[1,0.75,0],[0.75,1,0],[0.5,1,0],[0.25,1,0],[0,0.75,0],[0,0.5,0],[0,0.25,0]];shape=mxgraph.bpmn.task;whiteSpace=wrap;rectStyle=rounded;size=10;taskMarker=abstract;isLoopStandard=1;isLoopSub=1;fillColor=#5b7b65;" parent="j8fhtU1hvzyhwvqFzkYq-30" vertex="1">
          <mxGeometry x="1235" y="30" width="120" height="80" as="geometry" />
        </mxCell>
        <mxCell id="8Ae6zeDYgx-UutW48Nks-38" style="edgeStyle=orthogonalEdgeStyle;rounded=0;orthogonalLoop=1;jettySize=auto;html=1;fontSize=20;fontColor=#000000;endArrow=classic;endFill=1;strokeWidth=2;" parent="j8fhtU1hvzyhwvqFzkYq-30" source="8Ae6zeDYgx-UutW48Nks-35" target="j8fhtU1hvzyhwvqFzkYq-77" edge="1">
          <mxGeometry relative="1" as="geometry" />
        </mxCell>
        <mxCell id="8Ae6zeDYgx-UutW48Nks-35" value="" style="points=[[0.25,0.25,0],[0.5,0,0],[0.75,0.25,0],[1,0.5,0],[0.75,0.75,0],[0.5,1,0],[0.25,0.75,0],[0,0.5,0]];shape=mxgraph.bpmn.gateway2;html=1;verticalLabelPosition=bottom;labelBackgroundColor=#ffffff;verticalAlign=top;align=center;perimeter=rhombusPerimeter;outlineConnect=0;outline=none;symbol=none;gwType=parallel;rounded=0;shadow=0;glass=0;sketch=0;fontSize=15;fillColor=none;" parent="j8fhtU1hvzyhwvqFzkYq-30" vertex="1">
          <mxGeometry x="1385" y="115.5" width="50" height="50" as="geometry" />
        </mxCell>
        <mxCell id="IbKYtC_3RCh5xxz1OneK-66" value="" style="points=[[0.145,0.145,0],[0.5,0,0],[0.855,0.145,0],[1,0.5,0],[0.855,0.855,0],[0.5,1,0],[0.145,0.855,0],[0,0.5,0]];shape=mxgraph.bpmn.event;html=1;verticalLabelPosition=bottom;labelBackgroundColor=#ffffff;verticalAlign=top;align=center;perimeter=ellipsePerimeter;outlineConnect=0;aspect=fixed;outline=end;symbol=terminate;fontSize=15;" parent="j8fhtU1hvzyhwvqFzkYq-30" vertex="1">
          <mxGeometry x="2050" y="115.5" width="50" height="50" as="geometry" />
        </mxCell>
        <mxCell id="IbKYtC_3RCh5xxz1OneK-187" style="edgeStyle=orthogonalEdgeStyle;rounded=0;jumpStyle=arc;orthogonalLoop=1;jettySize=auto;html=1;labelBackgroundColor=default;fontSize=15;startArrow=none;startFill=0;endArrow=classic;endFill=1;strokeWidth=2;" parent="j8fhtU1hvzyhwvqFzkYq-30" source="IbKYtC_3RCh5xxz1OneK-185" target="IbKYtC_3RCh5xxz1OneK-66" edge="1">
          <mxGeometry relative="1" as="geometry">
            <mxPoint x="2075.000000000001" y="140.5" as="targetPoint" />
          </mxGeometry>
        </mxCell>
        <mxCell id="5pTV1qb8en98lGyIplWa-1" value="Processamento de informação" style="points=[[0.25,0,0],[0.5,0,0],[0.75,0,0],[1,0.25,0],[1,0.5,0],[1,0.75,0],[0.75,1,0],[0.5,1,0],[0.25,1,0],[0,0.75,0],[0,0.5,0],[0,0.25,0]];shape=mxgraph.bpmn.task;whiteSpace=wrap;rectStyle=rounded;size=10;taskMarker=user;rounded=0;shadow=0;glass=0;sketch=0;fontSize=15;align=center;verticalAlign=middle;html=1;" vertex="1" parent="j8fhtU1hvzyhwvqFzkYq-30">
          <mxGeometry x="490" y="100.5" width="120" height="80" as="geometry" />
        </mxCell>
        <mxCell id="5pTV1qb8en98lGyIplWa-3" style="edgeStyle=orthogonalEdgeStyle;rounded=0;jumpStyle=arc;orthogonalLoop=1;jettySize=auto;html=1;fontFamily=Roboto;fontSource=https%3A%2F%2Ffonts.googleapis.com%2Fcss%3Ffamily%3DRoboto;fontSize=50;fontColor=#000000;endArrow=classic;endFill=1;strokeWidth=2;" edge="1" parent="j8fhtU1hvzyhwvqFzkYq-30" source="5pTV1qb8en98lGyIplWa-2" target="j8fhtU1hvzyhwvqFzkYq-91">
          <mxGeometry relative="1" as="geometry" />
        </mxCell>
        <mxCell id="5pTV1qb8en98lGyIplWa-2" value="" style="points=[[0.25,0,0],[0.5,0,0],[0.75,0,0],[1,0.25,0],[1,0.5,0],[1,0.75,0],[0.75,1,0],[0.5,1,0],[0.25,1,0],[0,0.75,0],[0,0.5,0],[0,0.25,0]];shape=mxgraph.bpmn.task;whiteSpace=wrap;rectStyle=rounded;size=10;taskMarker=abstract;isLoopStandard=1;fontFamily=Roboto;fontSource=https%3A%2F%2Ffonts.googleapis.com%2Fcss%3Ffamily%3DRoboto;fontSize=50;fontColor=#000000;strokeColor=default;strokeWidth=2;fillColor=none;gradientColor=none;" vertex="1" parent="j8fhtU1hvzyhwvqFzkYq-30">
          <mxGeometry x="490" y="100.5" width="120" height="80" as="geometry" />
        </mxCell>
        <mxCell id="j8fhtU1hvzyhwvqFzkYq-32" style="edgeStyle=orthogonalEdgeStyle;rounded=0;jumpStyle=none;orthogonalLoop=1;jettySize=auto;html=1;dashed=1;fontSize=15;startArrow=oval;startFill=0;endArrow=classic;endFill=1;strokeWidth=2;" parent="1" source="j8fhtU1hvzyhwvqFzkYq-18" target="j8fhtU1hvzyhwvqFzkYq-31" edge="1">
          <mxGeometry relative="1" as="geometry">
            <Array as="points">
              <mxPoint x="450" y="940" />
              <mxPoint x="450" y="940" />
            </Array>
            <mxPoint x="630" y="1040" as="sourcePoint" />
            <mxPoint x="450" y="1050" as="targetPoint" />
          </mxGeometry>
        </mxCell>
        <mxCell id="NLFkMVxidJrpuLbfi5vq-1" value="&lt;b&gt;Desafio 1: &lt;font color=&quot;#5b7b65&quot;&gt;Novo Processo&lt;/font&gt;&lt;/b&gt;&lt;br&gt;Comunicação entre diversas entidades para aviso de reestruturação da vinha" style="text;html=1;strokeColor=none;fillColor=none;align=left;verticalAlign=middle;whiteSpace=wrap;rounded=0;fontSize=30;fontFamily=Roboto;fontSource=https%3A%2F%2Ffonts.googleapis.com%2Fcss%3Ffamily%3DRoboto;" parent="1" vertex="1">
          <mxGeometry x="40" y="120" width="1060" height="100" as="geometry" />
        </mxCell>
        <mxCell id="8Ae6zeDYgx-UutW48Nks-50" value="" style="rounded=0;whiteSpace=wrap;html=1;labelBackgroundColor=none;fontSize=20;strokeWidth=2;fillColor=#546d78;gradientDirection=south;dashed=1;strokeColor=none;opacity=50;" parent="1" vertex="1">
          <mxGeometry x="270" y="280" width="300" height="90" as="geometry" />
        </mxCell>
        <mxCell id="8Ae6zeDYgx-UutW48Nks-24" value="&lt;font style=&quot;font-size: 23px&quot;&gt;1a:&amp;nbsp;&lt;span style=&quot;&quot;&gt;Identificar parcela alvo de intervenção VITIS&lt;/span&gt;&lt;/font&gt;" style="rounded=0;whiteSpace=wrap;html=1;fontSize=20;fontColor=#000000;strokeColor=none;fillColor=none;opacity=50;fontStyle=1;strokeWidth=2;fontFamily=Helvetica;align=right;" parent="1" vertex="1">
          <mxGeometry x="330" y="280" width="240" height="90" as="geometry" />
        </mxCell>
        <mxCell id="8Ae6zeDYgx-UutW48Nks-52" value="" style="rounded=0;whiteSpace=wrap;html=1;labelBackgroundColor=none;fontSize=20;strokeWidth=2;fillColor=#A9C4EB;gradientDirection=south;dashed=1;strokeColor=none;opacity=50;" parent="1" vertex="1">
          <mxGeometry x="60" y="1210" width="290" height="120" as="geometry" />
        </mxCell>
        <mxCell id="8Ae6zeDYgx-UutW48Nks-53" value="&lt;font style=&quot;font-size: 23px&quot;&gt;1b:&amp;nbsp;&lt;/font&gt;&lt;span style=&quot;font-size: 23px&quot;&gt;Receber informação descritiva sobre a parcela alvo de intervenção VITIS&lt;/span&gt;" style="rounded=0;whiteSpace=wrap;html=1;fontSize=20;fontColor=#000000;strokeColor=none;fillColor=none;opacity=50;fontStyle=1;strokeWidth=2;fontFamily=Helvetica;align=left;" parent="1" vertex="1">
          <mxGeometry x="70" y="1220" width="280" height="90" as="geometry" />
        </mxCell>
        <mxCell id="8Ae6zeDYgx-UutW48Nks-54" value="&lt;font style=&quot;font-size: 50px;&quot;&gt;&lt;b style=&quot;font-size: 50px;&quot;&gt;SOS VITIS&lt;/b&gt;&lt;/font&gt;" style="text;html=1;strokeColor=none;fillColor=none;align=center;verticalAlign=middle;whiteSpace=wrap;rounded=0;fontFamily=Roboto;fontSize=50;fontColor=#000000;fontSource=https%3A%2F%2Ffonts.googleapis.com%2Fcss%3Ffamily%3DRoboto;" parent="1" vertex="1">
          <mxGeometry x="40" y="40" width="230" height="80" as="geometry" />
        </mxCell>
      </root>
    </mxGraphModel>
  </diagram>
</mxfile>
